<svg width="40" height="52" viewBox="0 0 40 52" fill="none" xmlns="http://www.w3.org/2000/svg">
<g id="noun-telecommunication-5614072 1">
<path id="Vector" fill-rule="evenodd" clip-rule="evenodd" d="M8.94494 2.01793C9.21275 1.75012 9.64673 1.75012 9.91491 2.01793C10.1827 2.28575 10.1827 2.71973 9.91491 2.98791C8.06901 4.83381 7.05046 7.29338 7.05046 9.90357C7.05046 12.5141 8.06937 14.9726 9.91527 16.8185C10.1831 17.0863 10.1831 17.5203 9.91527 17.7885C9.64745 18.0563 9.21347 18.0563 8.94529 17.7885C6.85241 15.696 5.67845 12.8627 5.67845 9.90357C5.67845 6.94409 6.85206 4.11081 8.94494 2.01793ZM4.33592 46.8648C3.79612 46.8648 3.35626 47.3047 3.35626 47.8445V48.5459C3.35626 49.0857 3.79614 49.5256 4.33592 49.5256H9.17566C9.71545 49.5256 10.1553 49.0857 10.1553 48.5459V47.8445C10.1553 47.3047 9.71544 46.8648 9.17566 46.8648H8.4638L20.0099 37.3445L31.556 46.8648H30.8441C30.3043 46.8648 29.8645 47.3047 29.8645 47.8445V48.5459C29.8645 49.0857 30.3043 49.5256 30.8441 49.5256H35.6839C36.2237 49.5256 36.6635 49.0857 36.6635 48.5459V47.8445C36.6635 47.3047 36.2236 46.8648 35.6839 46.8648H34.478L21.7374 12.5889C22.6196 12.0207 23.2035 11.0295 23.2035 9.90241C23.2035 8.1384 21.7735 6.70875 20.0098 6.70875C18.2458 6.70875 16.8162 8.13875 16.8162 9.90241C16.8162 11.0295 17.4004 12.0207 18.2822 12.5889L5.54166 46.8648H4.33592ZM27.2594 31.3676L32.718 46.0522L21.084 36.459L27.2594 31.3676ZM7.30126 46.0522L12.7599 31.3676L18.9356 36.4596L7.30126 46.0522ZM20.6955 35.0079V25.4502L26.4913 30.2292L20.6955 35.0079ZM16.8086 20.4743L19.3237 13.7074V22.5481L16.8086 20.4743ZM21.0836 23.9992L23.7143 21.8299L26.04 28.0855L21.0836 23.9992ZM18.9355 23.9992L13.9792 28.0855L16.3049 21.8297L18.9355 23.9992ZM19.3237 25.4503V35.008L13.5279 30.229L19.3237 25.4503ZM20.6954 22.5488V13.7081L23.2105 20.4749L20.6954 22.5488ZM30.1047 2.98675C29.8369 2.71894 29.8369 2.28495 30.1047 2.01678C30.3725 1.74896 30.8065 1.74896 31.0747 2.01678C33.1676 4.1093 34.3408 6.94294 34.3408 9.90206C34.3408 12.8612 33.1669 15.6945 31.074 17.787C30.8062 18.0548 30.3722 18.0548 30.104 17.787C29.8362 17.5192 29.8362 17.0852 30.104 16.817C31.9499 14.9711 32.9688 12.5118 32.9688 9.90206C32.9695 7.29258 31.951 4.83265 30.1047 2.98675ZM28.74 15.4538C28.4722 15.7216 28.0382 15.7216 27.77 15.4538C27.5022 15.186 27.5022 14.752 27.77 14.4838C28.9946 13.2592 29.6676 11.6346 29.6676 9.9025C29.6676 8.17072 28.9946 6.54614 27.77 5.32119C27.5022 5.05338 27.5022 4.61939 27.77 4.35122C28.0378 4.0834 28.4718 4.0834 28.74 4.35122C30.2112 5.82243 31.0397 7.82099 31.0397 9.90215C31.0397 11.9839 30.212 13.9825 28.74 15.4538ZM12.2481 14.4845C11.0235 13.2599 10.3505 11.6353 10.3505 9.90321C10.3505 8.17143 11.0235 6.54685 12.2481 5.3219C12.5159 5.05409 12.5159 4.6201 12.2481 4.35193C11.9803 4.08411 11.5463 4.08411 11.2781 4.35193C9.80693 5.82314 8.97914 7.8217 8.97914 9.90286C8.97914 11.984 9.80687 13.9826 11.2789 15.4538C11.5467 15.7216 11.9806 15.7216 12.2488 15.4538C12.5156 15.1863 12.5156 14.752 12.2481 14.4845ZM13.6121 6.68628C13.88 6.41847 14.3139 6.41847 14.5821 6.68628C14.8499 6.95409 14.8499 7.38807 14.5821 7.65625C14.0069 8.23143 13.651 9.02587 13.651 9.90357C13.651 10.6127 13.8807 11.2909 14.3157 11.8515C14.5464 12.1505 14.4913 12.58 14.1926 12.8104C13.8935 13.0411 13.4641 12.9859 13.2337 12.6872C12.6152 11.89 12.2801 10.9128 12.2801 9.90324C12.2797 8.64703 12.7889 7.50954 13.6121 6.68628ZM25.4362 7.6559C25.1684 7.38808 25.1684 6.9541 25.4362 6.68592C25.704 6.41811 26.138 6.41811 26.4062 6.68592C27.2294 7.50914 27.7387 8.64665 27.7387 9.9025C27.7387 10.9116 27.4036 11.8885 26.785 12.6865C26.5543 12.9855 26.1249 13.0403 25.8262 12.8096C25.5271 12.5789 25.4723 12.1495 25.703 11.8508C26.138 11.2902 26.3677 10.612 26.3677 9.90283C26.3666 9.02515 26.0114 8.23111 25.4362 7.6559Z" fill="#EC661D"/>
</g>
</svg>
