<svg width="40" height="29" viewBox="0 0 40 29" fill="none" xmlns="http://www.w3.org/2000/svg">
<g id="noun-finance-1411421 1" clip-path="url(#clip0_2277_3728)">
<g id="Group">
<path id="Vector" fill-rule="evenodd" clip-rule="evenodd" d="M31.0378 18.9893V28.4141H36.8589V10.5356L31.0378 18.9893ZM31.7309 19.2664L36.1659 13.0296V27.5823H31.7309V19.2664Z" fill="#EC661D"/>
<path id="Vector_2" fill-rule="evenodd" clip-rule="evenodd" d="M23.9691 15.1089V28.4144H29.9288V20.0987L23.9691 15.1089ZM24.8008 16.7722L29.0972 20.3758V27.5828H24.8008V16.7722Z" fill="#EC661D"/>
<path id="Vector_3" fill-rule="evenodd" clip-rule="evenodd" d="M17.04 21.4843V28.4142H22.9998V14.277L22.4452 13.8613L17.04 21.4843ZM17.8717 21.7614L22.1681 15.6632V27.5829H17.8717V21.7614Z" fill="#EC661D"/>
<path id="Vector_4" fill-rule="evenodd" clip-rule="evenodd" d="M10.1102 16.3564V28.4142H16.0699V22.8704L10.1102 16.3565V16.3564ZM10.8032 18.4354L15.2383 23.1478V27.5828H10.8032V18.4354Z" fill="#EC661D"/>
<path id="Vector_5" fill-rule="evenodd" clip-rule="evenodd" d="M3.04156 8.87256V28.4143H9.00128V15.2475L3.04156 8.87256ZM3.87321 10.8129L8.30821 15.6639V27.5836H3.87321V10.8129Z" fill="#EC661D"/>
<path id="Vector_6" fill-rule="evenodd" clip-rule="evenodd" d="M15.3767 12.7533L21.3365 4.57639L28.9592 10.8132L32.7014 5.54661L30.2068 3.88333L39.3541 0.557129V10.2586L37.1366 8.73423L30.0682 18.8519L22.4454 12.6151L15.9315 21.4857L0.685974 4.85438L4.70531 1.25072L15.3772 12.7542L15.3767 12.7533ZM4.70486 2.49691L15.5155 14.2779L20.3665 7.48662L21.4752 5.96221L29.098 12.199L33.9489 5.40773L32.2856 4.16042L38.3839 1.94295V8.45684L36.998 7.48662L31.0383 15.941L29.9296 17.6043L28.4052 16.357L22.1684 11.2289L17.1789 18.2974L15.9316 20.0992L14.4072 18.4359L1.93329 4.99236L4.70531 2.49773L4.70486 2.49691Z" fill="#EC661D"/>
</g>
</g>
<defs>
<clipPath id="clip0_2277_3728">
<rect width="40" height="28.9389" fill="white"/>
</clipPath>
</defs>
</svg>
