<svg width="40" height="40" viewBox="0 0 40 40" fill="none" xmlns="http://www.w3.org/2000/svg">
<g id="noun-government-5208925 1">
<path id="Vector" fill-rule="evenodd" clip-rule="evenodd" d="M19.9983 0.772228C19.8668 0.772228 19.7383 0.811626 19.6291 0.885091L2.27578 12.4914C2.03418 12.6541 1.92671 12.9553 2.01079 13.2341C2.09488 13.5128 2.35098 13.7042 2.64232 13.7057H4.30155V16.1107L4.30125 16.111C4.30273 16.4775 4.60088 16.7731 4.96713 16.7719H5.6484V27.9589H4.96713V27.9586C4.79037 27.958 4.62072 28.0279 4.49577 28.1529C4.37054 28.2779 4.30066 28.448 4.30125 28.6248V31.0248H4.02264L4.02294 31.0245C3.6567 31.0233 3.35855 31.3189 3.35707 31.6854V34.4767H2.63168H2.63198C2.26722 34.4782 1.97203 34.7742 1.97144 35.1391V38.5913V38.591C1.96996 38.9574 2.26574 39.2557 2.63198 39.2572H37.2665C37.6328 39.2557 37.9283 38.9574 37.9271 38.591V35.1388V35.1391C37.9262 34.7742 37.631 34.4782 37.2665 34.4767H36.5412V31.6854C36.5397 31.321 36.2448 31.026 35.8806 31.0245H35.6902V28.6245V28.6248C35.6908 28.4486 35.6216 28.2794 35.4972 28.1544C35.3731 28.0294 35.2044 27.9589 35.0282 27.9586H34.3431V16.7716H35.0282C35.393 16.7707 35.6888 16.4754 35.6902 16.1107V13.7057H37.3495V13.7054C37.6414 13.7063 37.8996 13.5158 37.9851 13.2365C38.0707 12.9568 37.9635 12.6544 37.721 12.4915L20.3678 0.884348C20.2582 0.810587 20.1291 0.771484 19.9974 0.771484L19.9983 0.772228ZM19.9956 2.2365L35.166 12.3793H4.82977L19.9956 2.2365ZM19.9269 5.19492C18.4649 5.23225 17.2794 6.44148 17.2794 7.9122C17.2794 9.40665 18.5013 10.631 19.9953 10.631C21.4893 10.631 22.7177 9.40665 22.7177 7.9122C22.7177 6.41774 21.4893 5.19492 19.9953 5.19492C19.9719 5.19492 19.95 5.19433 19.9266 5.19492H19.9269ZM19.9956 6.52201C20.7737 6.52201 21.3919 7.13609 21.3919 7.9125C21.3919 8.68891 20.774 9.3042 19.9956 9.3042C19.2175 9.3042 18.6058 8.68864 18.6058 7.9125C18.6058 7.13612 19.2175 6.52201 19.9956 6.52201ZM5.62941 13.7063H10.1718V15.4455H5.62971L5.62941 13.7063ZM11.4979 13.7063H16.4027V16.1114C16.4042 16.4761 16.6997 16.7714 17.0644 16.7723H17.7495V27.9593H17.0644V27.959C16.8883 27.9593 16.7195 28.0298 16.5954 28.1548C16.4714 28.2798 16.4018 28.4489 16.4027 28.6252V31.0252H11.4979V28.6252H11.4976C11.4991 28.2588 11.2033 27.9605 10.8371 27.959H10.152V16.772H10.8371C11.2015 16.7705 11.4964 16.4755 11.4976 16.1111L11.4979 13.7063ZM17.7252 13.7063H22.2676V15.4455H17.7252V13.7063ZM23.5937 13.7063H28.5V16.1114H28.4997C28.5011 16.4758 28.796 16.7708 29.1602 16.7723H29.8453V27.9593H29.1602V27.959C28.794 27.9605 28.4982 28.2588 28.4997 28.6252V31.0252L23.5935 31.0249V28.6251C23.5949 28.2587 23.2992 27.9604 22.9329 27.9589H22.2478V16.7719H22.9329C23.2971 16.7704 23.592 16.4754 23.5935 16.111L23.5937 13.7063ZM29.8261 13.7063H34.3632V15.4455H29.8261V13.7063ZM6.97545 16.7723H8.82621V27.9593H6.97545V16.7723ZM19.0761 16.7723H20.9219V27.9593H19.0761V16.7723ZM31.1723 16.7723H33.018L33.0177 27.9593H31.1723L31.1723 16.7723ZM5.62933 29.2864H10.1717V31.0255H5.62963L5.62933 29.2864ZM17.7255 29.2864H22.2679V31.0255H17.7255V29.2864ZM29.8269 29.2864H34.3639V31.0255L29.8269 31.0253V29.2864ZM4.68492 32.3523H35.2167V34.4774H4.68492V32.3523ZM3.30045 35.8057H36.6025V37.9308H3.30045V35.8057Z" fill="#EC661D"/>
</g>
</svg>
