<svg width="40" height="40" viewBox="0 0 40 40" fill="none" xmlns="http://www.w3.org/2000/svg">
<g id="noun-manufacturing-5148193 1">
<g id="Group">
<path id="Vector" d="M34.7455 28.3799H32.2864C32.3753 28.1694 32.4245 27.938 32.4245 27.6952V20.6075C32.4245 20.3086 32.1823 20.0663 31.8834 20.0663C31.5844 20.0663 31.3422 20.3086 31.3422 20.6075V27.6952C31.3422 28.0728 31.035 28.3799 30.6578 28.3799H14.6569C14.2794 28.3799 13.9722 28.0728 13.9722 27.6952V11.6944C13.9722 11.3168 14.2794 11.0099 14.6569 11.0099H19.8422V19.427C19.8422 20.0305 20.3334 20.5217 20.9369 20.5217H24.3771C24.9806 20.5217 25.4718 20.0305 25.4718 19.427V11.0099H30.6571C31.0346 11.0099 31.3416 11.3171 31.3416 11.6944V18.0821C31.3416 18.381 31.5838 18.6232 31.8827 18.6232C32.1816 18.6232 32.4239 18.381 32.4239 18.0821V11.6944C32.4239 10.72 31.6312 9.92764 30.6571 9.92764H14.6563C13.6819 9.92764 12.8893 10.7203 12.8893 11.6944V27.6952C12.8893 27.938 12.9385 28.1691 13.0274 28.3799H8.93703V5.50307C8.93703 4.47745 8.10264 3.64307 7.07702 3.64307H3.40285C2.37723 3.64307 1.54285 4.47745 1.54285 5.50307V25.7168C1.54285 26.0157 1.78508 26.2579 2.084 26.2579C2.38292 26.2579 2.62515 26.0157 2.62515 25.7168V15.7659H7.85474V35.2361H3.5036C3.01914 35.2361 2.62515 34.8421 2.62515 34.3577V28.2421C2.62515 27.9432 2.38292 27.701 2.084 27.701C1.78508 27.701 1.54285 27.9432 1.54285 28.2421V34.3577C1.54285 35.4387 2.42235 36.3185 3.50365 36.3185H34.7448C36.8074 36.3185 38.4857 34.6404 38.4857 32.5776V32.1207C38.4857 30.0581 36.8076 28.3798 34.7448 28.3798L34.7455 28.3799ZM24.3897 11.0102V19.4272C24.3897 19.4342 24.384 19.4396 24.3773 19.4396H20.9371C20.9302 19.4396 20.9247 19.4339 20.9247 19.4272V11.0102H24.3897ZM2.62569 5.50307C2.62569 5.07427 2.97461 4.72536 3.40341 4.72536H7.07731C7.50611 4.72536 7.85502 5.07428 7.85502 5.50307V9.9279H2.62543L2.62569 5.50307ZM2.62569 14.6834V11.0099H7.85529V14.6834H2.62569ZM37.4041 32.5776C37.4041 34.0433 36.2115 35.2362 34.7455 35.2362H8.93758V29.4624H34.7455C36.2112 29.4624 37.4041 30.655 37.4041 32.121V32.5776Z" fill="#EC661D"/>
<path id="Vector_2" d="M4.12587 18.9711C4.42479 18.9711 4.66702 18.7289 4.66702 18.43V17.735C4.66702 17.4361 4.42479 17.1938 4.12587 17.1938C3.82695 17.1938 3.58472 17.4361 3.58472 17.735V18.43C3.58472 18.7289 3.82695 18.9711 4.12587 18.9711Z" fill="#EC661D"/>
<path id="Vector_3" d="M6.40047 18.9711C6.69939 18.9711 6.94162 18.7289 6.94162 18.43V17.735C6.94162 17.4361 6.69939 17.1938 6.40047 17.1938C6.10155 17.1938 5.85931 17.4361 5.85931 17.735V18.43C5.85931 18.7289 6.10155 18.9711 6.40047 18.9711Z" fill="#EC661D"/>
<path id="Vector_4" d="M3.58496 21.7781C3.58496 22.0771 3.82719 22.3193 4.12611 22.3193C4.42503 22.3193 4.66727 22.0771 4.66727 21.7781V21.0831C4.66727 20.7842 4.42503 20.542 4.12611 20.542C3.82719 20.542 3.58496 20.7842 3.58496 21.0831V21.7781Z" fill="#EC661D"/>
<path id="Vector_5" d="M5.8595 21.7781C5.8595 22.0771 6.10173 22.3193 6.40065 22.3193C6.69957 22.3193 6.9418 22.0771 6.9418 21.7781V21.0831C6.9418 20.7842 6.69957 20.542 6.40065 20.542C6.10173 20.542 5.8595 20.7842 5.8595 21.0831V21.7781Z" fill="#EC661D"/>
<path id="Vector_6" d="M3.58496 25.1268C3.58496 25.4257 3.82719 25.6679 4.12611 25.6679C4.42503 25.6679 4.66727 25.4257 4.66727 25.1268V24.4318C4.66727 24.1329 4.42503 23.8906 4.12611 23.8906C3.82719 23.8906 3.58496 24.1329 3.58496 24.4318V25.1268Z" fill="#EC661D"/>
<path id="Vector_7" d="M5.8595 25.1268C5.8595 25.4257 6.10173 25.6679 6.40065 25.6679C6.69957 25.6679 6.9418 25.4257 6.9418 25.1268V24.4318C6.9418 24.1329 6.69957 23.8906 6.40065 23.8906C6.10173 23.8906 5.8595 24.1329 5.8595 24.4318V25.1268Z" fill="#EC661D"/>
<path id="Vector_8" d="M25.0541 23.0635H20.2605C19.9616 23.0635 19.7194 23.3057 19.7194 23.6046C19.7194 23.9036 19.9616 24.1458 20.2605 24.1458H25.0541C25.353 24.1458 25.5953 23.9036 25.5953 23.6046C25.5953 23.3057 25.353 23.0635 25.0541 23.0635Z" fill="#EC661D"/>
<path id="Vector_9" d="M25.0541 25.2754H20.2605C19.9616 25.2754 19.7194 25.5176 19.7194 25.8165C19.7194 26.1155 19.9616 26.3577 20.2605 26.3577H25.0541C25.353 26.3577 25.5953 26.1155 25.5953 25.8165C25.5953 25.5176 25.353 25.2754 25.0541 25.2754Z" fill="#EC661D"/>
<path id="Vector_10" d="M14.3452 30.5283C13.2912 30.5283 12.4338 31.3859 12.4338 32.4397C12.4338 33.4936 13.2914 34.351 14.3452 34.351C15.3992 34.351 16.2565 33.4934 16.2565 32.4397C16.2565 31.3857 15.3989 30.5283 14.3452 30.5283ZM14.3452 33.2689C13.888 33.2689 13.5162 32.897 13.5162 32.4399C13.5162 31.9828 13.888 31.6109 14.3452 31.6109C14.8023 31.6109 15.1741 31.9828 15.1741 32.4399C15.1741 32.8971 14.8023 33.2689 14.3452 33.2689Z" fill="#EC661D"/>
<path id="Vector_11" d="M20.0152 30.5283C18.9612 30.5283 18.1039 31.3859 18.1039 32.4397C18.1039 33.4936 18.9615 34.351 20.0152 34.351C21.0692 34.351 21.9265 33.4934 21.9265 32.4397C21.9265 31.3857 21.0689 30.5283 20.0152 30.5283ZM20.0152 33.2689C19.5581 33.2689 19.1862 32.897 19.1862 32.4399C19.1862 31.9828 19.5581 31.6109 20.0152 31.6109C20.4723 31.6109 20.8442 31.9828 20.8442 32.4399C20.8442 32.8971 20.4723 33.2689 20.0152 33.2689Z" fill="#EC661D"/>
<path id="Vector_12" d="M25.6853 30.5283C24.6313 30.5283 23.7739 31.3859 23.7739 32.4397C23.7739 33.4936 24.6315 34.351 25.6853 34.351C26.7393 34.351 27.5966 33.4934 27.5966 32.4397C27.5966 31.3857 26.739 30.5283 25.6853 30.5283ZM25.6853 33.2689C25.2281 33.2689 24.8563 32.897 24.8563 32.4399C24.8563 31.9828 25.2281 31.6109 25.6853 31.6109C26.1424 31.6109 26.5142 31.9828 26.5142 32.4399C26.5142 32.8971 26.1424 33.2689 25.6853 33.2689Z" fill="#EC661D"/>
<path id="Vector_13" d="M31.3548 30.5283C30.3008 30.5283 29.4434 31.3859 29.4434 32.4397C29.4434 33.4936 30.301 34.351 31.3548 34.351C32.4087 34.351 33.2661 33.4934 33.2661 32.4397C33.2661 31.3857 32.4087 30.5283 31.3548 30.5283ZM31.3548 33.2689C30.8976 33.2689 30.5258 32.897 30.5258 32.4399C30.5258 31.9828 30.8976 31.6109 31.3548 31.6109C31.8119 31.6109 32.1837 31.9828 32.1837 32.4399C32.1837 32.8971 31.8119 33.2689 31.3548 33.2689Z" fill="#EC661D"/>
</g>
</g>
</svg>
