<svg width="40" height="40" viewBox="0 0 40 40" fill="none" xmlns="http://www.w3.org/2000/svg">
<g id="noun-healthcare-2929536 1">
<g id="Group">
<path id="Vector" d="M39.3626 17.9969H36.4992C38.1676 14.0065 37.9971 9.65634 35.9999 6.44127V6.44155C34.534 3.93284 31.8525 2.38245 28.9448 2.363C27.1594 2.3154 25.3932 2.73988 23.8251 3.59359C22.2571 4.44752 20.9425 5.70006 20.0149 7.22458C19.0874 5.69928 17.7728 4.44588 16.2039 3.59167C14.6353 2.73745 12.8685 2.31269 11.0825 2.36058C8.34862 2.37923 5.80336 3.7562 4.29377 6.03332C2.14752 9.1341 1.78139 13.4069 3.31359 17.4642C3.44927 17.7637 3.79505 17.9065 4.1029 17.7899C4.41078 17.6735 4.57517 17.3381 4.47849 17.0236C3.09373 13.35 3.40742 9.50679 5.32051 6.74277C6.58772 4.79242 8.75509 3.61335 11.0825 3.60779C12.8331 3.53654 14.565 3.99191 16.0536 4.9152C17.5423 5.83818 18.7192 7.18648 19.4322 8.78525C19.542 9.00654 19.7677 9.14654 20.0148 9.14654C20.262 9.14654 20.4877 9.00654 20.5975 8.78525C21.3105 7.18641 22.4874 5.83818 23.976 4.9152C25.4647 3.99193 27.1966 3.53654 28.9472 3.60779C31.4212 3.63368 33.6983 4.9608 34.9388 7.09934C36.8053 10.1046 36.8527 14.2485 35.1185 17.9994H32.5504C32.3512 17.9999 32.164 18.0951 32.0461 18.2554L31.5841 18.889L30.5206 14.9693H30.5209C30.449 14.7046 30.2128 14.5181 29.9383 14.5095H29.9174C29.6494 14.5098 29.4114 14.6807 29.3259 14.9345L27.5151 20.3207L26.147 11.3425V11.3422C26.1033 11.0533 25.8645 10.8334 25.5725 10.8134C25.2805 10.7933 25.0139 10.9787 24.9311 11.259L22.9582 17.9969H20.3218C20.0365 17.9969 19.7877 18.1903 19.7178 18.4667L19.3583 19.8799L17.5785 14.6334H17.5782C17.4943 14.3859 17.2647 14.217 17.0031 14.2103C16.7404 14.2017 16.501 14.36 16.4066 14.6053L13.5406 21.8705L11.8764 7.74759H11.8761C11.841 7.44614 11.5939 7.21372 11.2905 7.19702C10.987 7.18032 10.7159 7.38435 10.648 7.68022L8.14142 18.4983H0.666966C0.322309 18.4983 0.0428467 18.7775 0.0428467 19.1218C0.0428467 19.4661 0.322309 19.7453 0.666966 19.7453H4.39499C4.50979 19.9465 4.62458 20.1478 4.75024 20.3479C7.56462 24.8389 18.9787 36.9634 19.463 37.475C19.5803 37.5997 19.7436 37.6707 19.915 37.6712C20.0852 37.6712 20.2479 37.6019 20.3658 37.4792C20.8319 36.9921 31.8253 25.5082 35.0215 20.7383L35.0218 20.738C35.116 20.6008 35.1514 20.4315 35.1199 20.2679C35.0884 20.1045 34.9928 19.9603 34.8544 19.8676C34.7159 19.7749 34.5462 19.7413 34.3826 19.7744C34.2194 19.8075 34.0762 19.9046 33.9848 20.0441C31.2103 24.1825 22.068 33.877 19.921 36.1401C17.7441 33.8173 8.34096 23.681 5.84805 19.7455H8.63818C8.92879 19.7458 9.18122 19.5454 9.24669 19.2626L11.0524 11.4551L12.591 24.48C12.625 24.7639 12.8473 24.9882 13.1309 25.0255C13.1585 25.0289 13.1864 25.0305 13.2143 25.0305C13.4714 25.0319 13.703 24.8749 13.7969 24.6356L16.9498 16.6485L18.8497 22.2791C18.9383 22.5405 19.1888 22.7125 19.4649 22.7016C19.7411 22.6908 19.9773 22.5001 20.0456 22.2324L20.8046 19.2446H23.4265C23.7034 19.2446 23.9472 19.0623 24.0249 18.7967L25.3406 14.3132L26.6719 23.0513C26.7156 23.3355 26.9482 23.5531 27.2349 23.5779C27.5217 23.603 27.7883 23.4287 27.8802 23.1562L29.8565 17.2787L30.7228 20.4686C30.7858 20.6999 30.9761 20.8747 31.2121 20.9184C31.4483 20.9618 31.6882 20.8661 31.8298 20.6723L32.8707 19.245H39.3616V19.2447C39.7062 19.2447 39.9857 18.9658 39.9857 18.6212C39.9857 18.2769 39.7062 17.9978 39.3616 17.9978L39.3626 17.9969Z" fill="#EC661D"/>
</g>
</g>
</svg>
