<svg width="40" height="40" viewBox="0 0 40 40" fill="none" xmlns="http://www.w3.org/2000/svg">
<g id="noun-e-commerce-3349535 1">
<g id="Group">
<path id="Vector" d="M19.9929 38.6996C20.6625 38.699 21.3315 38.6635 21.9972 38.5928C22.3662 38.554 22.634 38.2236 22.5952 37.8543C22.5565 37.4854 22.226 37.2178 21.8571 37.2566C21.2379 37.3249 20.6157 37.3607 19.9929 37.3634C15.386 37.3634 10.9678 35.5332 7.70975 32.2756C4.45215 29.018 2.622 24.5997 2.622 19.9924C2.61693 17.7811 3.03867 15.5898 3.86452 13.5387C4.00113 13.1954 3.8338 12.8065 3.49051 12.6702C3.14721 12.5336 2.75858 12.7009 2.62197 13.0442C1.73343 15.2528 1.27981 17.612 1.28576 19.9925C1.28576 24.9538 3.25663 29.7117 6.76482 33.2202C10.2732 36.7283 15.0317 38.6992 19.9925 38.6992L19.9929 38.6996Z" fill="#EC661D"/>
<path id="Vector_2" d="M26.8412 35.9597C25.9921 36.326 25.1137 36.6213 24.2156 36.8417C23.8466 36.884 23.5818 37.2175 23.6241 37.5865C23.6668 37.9557 24.0002 38.2203 24.3692 38.1779H24.5297C25.493 37.9268 26.4338 37.596 27.3423 37.1892C27.6817 37.0433 27.8389 36.6499 27.693 36.3105C27.5472 35.9711 27.1541 35.8139 26.8143 35.9597L26.8412 35.9597Z" fill="#EC661D"/>
<path id="Vector_3" d="M19.9929 1.28564C19.3233 1.28624 18.6543 1.32173 17.9886 1.39242C17.6197 1.43119 17.3518 1.76166 17.3906 2.13091C17.4294 2.49986 17.7598 2.7674 18.1288 2.72863C18.748 2.66032 19.3702 2.62453 19.9929 2.62185C24.5999 2.62185 29.0181 4.452 32.2761 7.7096C35.5337 10.9672 37.3639 15.3855 37.3639 19.9928C37.3689 22.2041 36.9472 24.3954 36.1213 26.4465C36.0468 26.6144 36.045 26.8053 36.1157 26.9747C36.1863 27.1441 36.3239 27.2769 36.4954 27.3419C36.5741 27.3729 36.6579 27.3887 36.7426 27.3887C37.023 27.3848 37.2714 27.2059 37.3639 26.941C38.2524 24.7324 38.7061 22.3732 38.7001 19.9927C38.7001 16.7089 37.8358 13.4832 36.1938 10.6393C34.5519 7.79539 32.1905 5.43404 29.3466 3.79211C26.5027 2.15018 23.2771 1.28584 19.9932 1.28584L19.9929 1.28564Z" fill="#EC661D"/>
<path id="Vector_4" d="M12.8843 4.07815C12.9741 4.07815 13.0626 4.05995 13.145 4.02476C13.9941 3.65849 14.8725 3.36321 15.7706 3.14278C15.9522 3.11057 16.1124 3.00499 16.2132 2.85049C16.3143 2.69599 16.3468 2.50689 16.3033 2.32764C16.26 2.14838 16.1443 1.99507 15.9841 1.9041C15.8237 1.81284 15.6328 1.79226 15.4565 1.84684C14.4943 2.08485 13.5536 2.4022 12.6439 2.79532C12.3519 2.91969 12.1878 3.23227 12.2511 3.54306C12.314 3.85384 12.5872 4.07754 12.9046 4.07814L12.8843 4.07815Z" fill="#EC661D"/>
<path id="Vector_5" d="M6.29034 11.9754C6.55072 12.2346 6.97157 12.2346 7.23225 11.9754L11.9758 7.23842C12.235 6.97803 12.235 6.55719 11.9758 6.2965L8.18103 2.51519C7.92035 2.256 7.4995 2.256 7.23881 2.51519L2.51559 7.23842C2.2564 7.4991 2.2564 7.91994 2.51559 8.18063L6.29034 11.9754ZM7.71336 3.95814L10.5463 6.79105L6.76465 10.5456L3.95862 7.71296L4.43285 7.23873L5.37476 8.18064H5.37506C5.63544 8.43953 6.05658 8.43953 6.31697 8.18064L8.20766 6.28995C8.46685 6.02926 8.46685 5.60842 8.20766 5.34773L7.23887 4.40582L7.71336 3.95814ZM6.76458 5.82227L5.82266 6.76418L5.34843 6.28995L6.29034 5.34803L6.76458 5.82227Z" fill="#EC661D"/>
<path id="Vector_6" d="M28.0102 32.7468C27.751 33.0072 27.751 33.428 28.0102 33.6887L31.7915 37.47C32.0522 37.7292 32.473 37.7292 32.7337 37.47L37.4572 32.7465V32.7468C37.7161 32.4861 37.7161 32.0653 37.4572 31.8046L33.6955 28.0098C33.4351 27.7506 33.0143 27.7506 32.7536 28.0098L28.0102 32.7468ZM33.2079 34.1633L34.1498 33.2213L34.6241 33.6956L33.6822 34.6375L33.2079 34.1633ZM36.0274 32.2723L35.5532 32.7465L34.6113 31.8046H34.611C34.3506 31.5457 33.9294 31.5457 33.669 31.8046L31.7784 33.6953C31.5192 33.956 31.5192 34.3768 31.7784 34.6375L32.7203 35.5794L32.246 36.0536L29.44 33.221L33.2213 29.4397L36.0274 32.2723Z" fill="#EC661D"/>
<path id="Vector_7" d="M31.7783 13.7054C30.2503 10.8457 27.7348 8.63916 24.7003 7.49689C21.6661 6.35455 18.3196 6.35455 15.2858 7.49689C12.2513 8.63924 9.73568 10.8457 8.20775 13.7054C7.17787 15.6337 6.63919 17.7859 6.63919 19.9722C6.63919 22.1581 7.17785 24.3107 8.20775 26.2389C9.73576 29.0986 12.2513 31.3052 15.2858 32.4475C18.3199 33.5895 21.6664 33.5895 24.7003 32.4475C27.7348 31.3051 30.2504 29.0986 31.7783 26.2389C32.8082 24.3107 33.3468 22.1581 33.3468 19.9722C33.3468 17.7859 32.8082 15.6337 31.7783 13.7054ZM30.7493 25.3373H26.1328C26.457 23.7983 26.638 22.2327 26.6738 20.6606H32.0187C31.9199 22.29 31.4881 23.8819 30.7493 25.3373ZM8.03373 20.6606H13.3786C13.4078 22.2321 13.5823 23.7977 13.8996 25.3373H9.23634C8.50918 23.8791 8.08865 22.2876 8.00031 20.6606H8.03373ZM9.26976 14.6477H13.8862C13.551 16.1855 13.3586 17.7511 13.3118 19.3244H7.96697C8.0657 17.695 8.49757 16.1031 9.23637 14.6477H9.26976ZM20.6611 13.3115V8.07337C22.1978 8.52762 23.554 10.512 24.4091 13.3115H20.6611ZM24.7566 14.6477C25.1034 16.1837 25.2979 17.7502 25.3379 19.3244H20.6611V14.6477H24.7566ZM19.3249 8.07337V13.3115H15.577C16.4321 10.512 17.7883 8.53455 19.3249 8.07337ZM19.3249 14.6477V19.3244H14.6482C14.6837 17.7508 14.874 16.1843 15.2161 14.6477H19.3249ZM14.6482 20.6606H19.3249V25.3373H15.2295C14.8826 23.8013 14.6882 22.2348 14.6482 20.6606ZM19.3249 26.6735V31.9116C17.7883 31.4574 16.4321 29.473 15.577 26.6735H19.3249ZM20.6611 31.9116V26.6735H24.4091C23.554 29.473 22.1978 31.4504 20.6611 31.9116ZM20.6611 25.3373V20.6606H25.3379C25.3024 22.2342 25.1121 23.8007 24.77 25.3373H20.6611ZM26.6741 19.3244C26.6448 17.7529 26.4703 16.1873 26.153 14.6477H30.7495C31.4766 16.1059 31.8972 17.6974 31.9855 19.3244H26.6741ZM30.0146 13.3115H25.799C25.3522 11.5464 24.537 9.8955 23.4069 8.46767C26.107 9.26221 28.4446 10.9758 30.0146 13.3115ZM16.5792 8.46767C15.4491 9.89542 14.6339 11.5463 14.1872 13.3115H9.97154C11.5415 10.9758 13.8791 9.26229 16.5792 8.46767ZM9.97154 26.6737H14.1537C14.6005 28.4388 15.4156 30.0896 16.5458 31.5175C13.8578 30.7161 11.5333 29.0034 9.97154 26.6737ZM23.3802 31.5175C24.5196 30.0921 25.344 28.4412 25.7988 26.6737H30.0144C28.4444 29.0094 26.1069 30.7229 23.4068 31.5175H23.3802Z" fill="#EC661D"/>
</g>
</g>
</svg>
