<svg width="40" height="33" viewBox="0 0 40 33" fill="none" xmlns="http://www.w3.org/2000/svg">
<g id="noun-education-4736328 1" clip-path="url(#clip0_2277_3685)">
<g id="Group">
<path id="Vector" d="M0.704513 6.5971L19.7276 1.03903C19.9152 0.984521 20.1059 0.988801 20.2798 1.04131L39.2986 6.59792C40.2419 6.87187 40.2268 8.21336 39.2946 8.48103L31.4555 10.7719V20.0307C31.4555 20.4614 31.1794 20.8269 30.7951 20.9605C29.871 21.3349 28.9462 21.6631 28.0208 21.9439V23.8424C29.1227 24.253 29.8722 25.3138 29.8722 26.5051C29.8722 27.6971 29.1227 28.7572 28.0208 29.1679V30.0303C28.0208 31.3232 26.0594 31.3232 26.0594 30.0303V29.1679C24.9572 28.7572 24.2077 27.6965 24.2077 26.5051C24.2077 25.3132 24.9572 24.253 26.0594 23.8424V22.4678C20.2967 23.7965 14.6116 23.2326 9.14895 20.9377C8.77262 20.7808 8.54547 20.4158 8.54547 20.0311L8.54404 10.7723L0.70132 8.48051C-0.242037 8.20656 -0.226952 6.86566 0.705305 6.59741L0.704513 6.5971ZM27.0398 25.6327C26.5536 25.6327 26.1693 26.0179 26.1693 26.5053C26.1693 26.9927 26.5536 27.3785 27.0398 27.3785C27.526 27.3785 27.9109 26.993 27.9109 26.5053C27.9109 26.0179 27.5263 25.6327 27.0398 25.6327ZM35.534 7.53949L19.9994 3.00044L4.46482 7.53949C9.6429 9.05251 14.821 10.5652 19.9994 12.0785C25.1775 10.5655 30.3556 9.05221 35.534 7.53949ZM28.0207 11.7757V19.8862C28.5117 19.7263 29.003 19.5517 29.4941 19.3634V11.345L28.0207 11.7757ZM26.0593 20.4509V12.3492L20.2715 14.0402C20.0839 14.0945 19.8932 14.0899 19.7193 14.038L10.5051 11.3456V19.3713C15.5786 21.3726 20.7781 21.7649 26.0593 20.4508L26.0593 20.4509Z" fill="#EC661D"/>
</g>
</g>
<defs>
<clipPath id="clip0_2277_3685">
<rect width="40" height="32.8832" fill="white"/>
</clipPath>
</defs>
</svg>
