<svg width="40" height="40" viewBox="0 0 40 40" fill="none" xmlns="http://www.w3.org/2000/svg">
<g id="noun-tourism-rout-5013480 1">
<g id="Group">
<path id="Vector" d="M9.88219 19.5167C8.30215 19.5257 6.78983 20.1604 5.6766 21.282C4.56315 22.4036 3.93992 23.9208 3.94288 25.5009C3.94288 29.5765 7.35045 33.4241 9.02259 35.0675V35.0678C9.26369 35.3046 9.58845 35.4374 9.9265 35.4374C10.2645 35.4374 10.589 35.3046 10.8301 35.0678C12.5022 33.425 15.9106 29.5769 15.9106 25.5012V25.5009C15.9109 23.9061 15.2744 22.3773 14.1425 21.2537C13.0108 20.1301 11.477 19.5048 9.88219 19.5167ZM9.92647 28.1957C9.2214 28.1957 8.54523 27.9155 8.04686 27.417C7.54815 26.9186 7.26825 26.2425 7.26825 25.5374C7.26825 24.8324 7.54813 24.1562 8.04686 23.6578C8.54528 23.1591 9.22144 22.8792 9.92647 22.8792C10.6313 22.8792 11.3074 23.1591 11.8061 23.6578C12.3045 24.1562 12.5847 24.8324 12.5847 25.5374C12.5847 26.2425 12.3045 26.9187 11.8061 27.417C11.3074 27.9155 10.6313 28.1957 9.92647 28.1957Z" fill="#EC661D"/>
<path id="Vector_2" d="M27.7247 2.05901C26.5152 2.114 25.3757 2.64165 24.551 3.5282C23.7264 4.41506 23.283 5.58987 23.316 6.80031C23.4158 9.63741 25.6306 12.3014 26.9299 13.6274C27.1716 13.8766 27.5033 14.0181 27.8506 14.0201C28.198 14.0222 28.5311 13.8844 28.7757 13.6378C30.101 12.282 32.4 9.51497 32.4 6.59741C32.3986 5.37022 31.901 4.19593 31.0206 3.34122C30.1401 2.48652 28.9513 2.02403 27.7247 2.05901ZM27.8544 8.64955C27.3189 8.64955 26.8055 8.43681 26.4269 8.05822C26.0483 7.67934 25.8355 7.16587 25.8355 6.63037C25.8355 6.09491 26.0483 5.58146 26.4269 5.20282C26.8055 4.82423 27.3189 4.61149 27.8544 4.61149C28.3899 4.61149 28.9033 4.82423 29.282 5.20282C29.6608 5.58141 29.8736 6.09488 29.8736 6.63037C29.8727 7.16555 29.6597 7.67847 29.2811 8.05644C28.9025 8.43445 28.3896 8.6469 27.8544 8.6469L27.8544 8.64955Z" fill="#EC661D"/>
<path id="Vector_3" d="M22.1059 25.9236C22.3901 26.1407 22.4448 26.5468 22.2286 26.8313C22.1279 26.9627 22.0431 27.1057 21.9762 27.2574C21.8283 27.5815 21.4492 27.7286 21.1212 27.5894C20.7939 27.4446 20.6457 27.0623 20.7898 26.7347C20.8981 26.4898 21.035 26.2585 21.1971 26.0455C21.3013 25.9089 21.4558 25.8192 21.6263 25.7963C21.7968 25.7734 21.9693 25.8191 22.1059 25.9236Z" fill="#EC661D"/>
<path id="Vector_4" d="M17.8875 16.1208C17.6291 15.8736 17.6195 15.4635 17.8667 15.2048C18.0545 15.0079 18.2667 14.8363 18.4982 14.6933C18.6444 14.5952 18.8242 14.561 18.9964 14.5981C19.1686 14.6354 19.3179 14.7411 19.4106 14.891C19.5032 15.0406 19.531 15.2215 19.4873 15.3923C19.4439 15.5628 19.3327 15.7084 19.1796 15.7955C19.0424 15.8806 18.9165 15.9828 18.8048 16.0994C18.6861 16.2239 18.5226 16.2959 18.3506 16.2997C18.1787 16.3038 18.0123 16.2392 17.8881 16.1202L17.8875 16.1208Z" fill="#EC661D"/>
<path id="Vector_5" d="M20.0682 14.8647C20.0682 14.5066 20.3585 14.2163 20.7166 14.2163H21.3649C21.723 14.2163 22.0133 14.5066 22.0133 14.8647C22.0133 15.2227 21.723 15.513 21.3649 15.513H20.7166C20.3585 15.513 20.0682 15.2227 20.0682 14.8647Z" fill="#EC661D"/>
<path id="Vector_6" d="M23.01 14.8647C23.01 14.5066 23.3003 14.2163 23.6584 14.2163H23.9209C24.1655 13.8282 24.5412 13.5405 24.9797 13.4053C25.3435 13.8404 25.6928 14.2221 26.0002 14.5341C26.4856 15.0314 27.1504 15.3127 27.8454 15.315C28.5403 15.3171 29.2072 15.0401 29.6958 14.5457C30.0063 14.2293 30.3609 13.8435 30.7273 13.4053C31.4237 13.6892 31.8535 14.0762 31.8535 14.5028C31.8535 15.3754 30.0622 16.0828 27.852 16.0828H27.8517C26.799 16.1103 25.7518 15.9167 24.7787 15.5144H23.6583C23.4861 15.5144 23.3211 15.4458 23.1992 15.3239C23.0777 15.2021 23.0097 15.0368 23.0099 14.8646L23.01 14.8647Z" fill="#EC661D"/>
<path id="Vector_7" d="M17.0808 18.2215C17.0128 17.959 16.9783 17.6886 16.9783 17.4174C16.9783 17.0594 17.2686 16.769 17.6267 16.769C17.9847 16.769 18.275 17.0594 18.275 17.4174C18.2747 17.5789 18.295 17.7395 18.3352 17.8958C18.3833 18.0898 18.3399 18.2953 18.2177 18.4533C18.0953 18.6113 17.9074 18.7048 17.7077 18.7068C17.4139 18.7025 17.1586 18.5046 17.0808 18.2215Z" fill="#EC661D"/>
<path id="Vector_8" d="M19.1776 19.0365C19.3157 19.1213 19.4638 19.1885 19.6187 19.2368C19.9243 19.3318 20.1151 19.6357 20.0673 19.9523C20.0199 20.269 19.7481 20.5034 19.428 20.5043C19.0919 20.4638 18.7718 20.3384 18.4977 20.1399C18.3434 20.0536 18.2308 19.908 18.1865 19.7367C18.1422 19.5656 18.1694 19.3839 18.2624 19.2334C18.3553 19.0828 18.5058 18.9769 18.6786 18.9402C18.8516 18.9031 19.032 18.9384 19.1784 19.0377L19.1776 19.0365Z" fill="#EC661D"/>
<path id="Vector_9" d="M21.3649 36.1803C21.3649 36.3523 21.2966 36.5172 21.175 36.6388C21.0535 36.7604 20.8885 36.8287 20.7166 36.8287H20.0682C19.7102 36.8287 19.4199 36.5384 19.4199 36.1803C19.4199 35.8223 19.7102 35.532 20.0682 35.532H20.7166C20.8885 35.532 21.0535 35.6003 21.175 35.7219C21.2966 35.8434 21.3649 36.0084 21.3649 36.1803Z" fill="#EC661D"/>
<path id="Vector_10" d="M18.7649 36.1803C18.7649 36.3523 18.6966 36.5172 18.5751 36.6388C18.4532 36.7604 18.2885 36.8287 18.1166 36.8287H17.4682C17.1099 36.8287 16.8199 36.5384 16.8199 36.1803C16.8199 35.8223 17.1099 35.532 17.4682 35.532H18.1166C18.2885 35.532 18.4532 35.6003 18.5751 35.7219C18.6966 35.8434 18.7649 36.0084 18.7649 36.1803Z" fill="#EC661D"/>
<path id="Vector_11" d="M16.1307 36.1801C16.1307 36.352 16.0624 36.517 15.9409 36.6386C15.8193 36.7602 15.6546 36.8285 15.4824 36.8285H14.6395C13.7759 37.5118 11.9938 37.9819 9.92861 37.9819C7.01942 37.9819 4.66077 37.0508 4.66077 35.902C4.66077 35.2614 5.39595 34.6883 6.54994 34.3072C7.10567 34.9607 7.64746 35.5318 8.11583 35.9929L8.11612 35.9926C8.59977 36.4676 9.25069 36.7339 9.92889 36.7339C10.6068 36.7339 11.2577 36.4676 11.7417 35.9926C12.2097 35.5324 12.7518 34.961 13.3082 34.3069C14.0428 34.4684 14.687 34.9075 15.1059 35.5324H15.4859C15.8425 35.5341 16.1304 35.8235 16.1307 36.1801Z" fill="#EC661D"/>
<path id="Vector_12" d="M29.8077 20.6175H29.1593C28.8013 20.6175 28.511 20.3272 28.511 19.9691C28.511 19.6111 28.8013 19.3208 29.1593 19.3208H29.8077C30.1657 19.3208 30.456 19.6111 30.456 19.9691C30.456 20.3272 30.1657 20.6175 29.8077 20.6175Z" fill="#EC661D"/>
<path id="Vector_13" d="M29.8171 25.3651C29.8171 25.5371 29.7488 25.7021 29.6272 25.8236C29.5054 25.9452 29.3407 26.0135 29.1688 26.0135H28.5204C28.1624 26.0135 27.8721 25.7232 27.8721 25.3651C27.8721 25.0071 28.1624 24.7168 28.5204 24.7168H29.1688C29.3407 24.7168 29.5054 24.7851 29.6272 24.9067C29.7488 25.0282 29.8171 25.1932 29.8171 25.3651Z" fill="#EC661D"/>
<path id="Vector_14" d="M21.365 19.3208H22.0134C22.3714 19.3208 22.6617 19.6111 22.6617 19.9691C22.6617 20.3272 22.3714 20.6175 22.0134 20.6175H21.365C21.007 20.6175 20.7167 20.3272 20.7167 19.9691C20.7167 19.6111 21.007 19.3208 21.365 19.3208Z" fill="#EC661D"/>
<path id="Vector_15" d="M33.8865 20.9823C33.5921 20.7782 33.5186 20.3741 33.7224 20.0798C33.9264 19.7851 34.3305 19.7119 34.6249 19.9156C34.8457 20.0688 35.0475 20.2479 35.2255 20.4494C35.3395 20.5779 35.3977 20.7469 35.3873 20.9186C35.3769 21.0902 35.2984 21.2508 35.1696 21.3646C34.8978 21.5903 34.4973 21.566 34.2547 21.309C34.1386 21.1927 34.0156 21.0836 33.8865 20.9823Z" fill="#EC661D"/>
<path id="Vector_16" d="M24.6118 19.3208C24.9699 19.3208 25.2602 19.6111 25.2602 19.9691C25.2602 20.3272 24.9699 20.6175 24.6118 20.6175H23.9635C23.6054 20.6175 23.3151 20.3272 23.3151 19.9691C23.3151 19.6111 23.6054 19.3208 23.9635 19.3208H24.6118Z" fill="#EC661D"/>
<path id="Vector_17" d="M27.858 19.9691C27.858 20.1411 27.7897 20.3061 27.6681 20.4276C27.5463 20.5492 27.3816 20.6175 27.2097 20.6175H26.5613C26.203 20.6175 25.913 20.3272 25.913 19.9691C25.913 19.6111 26.203 19.3208 26.5613 19.3208H27.2097C27.3816 19.3208 27.5463 19.3891 27.6681 19.5107C27.7897 19.6322 27.858 19.7972 27.858 19.9691Z" fill="#EC661D"/>
<path id="Vector_18" d="M31.2236 32.5222C31.3292 32.864 31.1376 33.2267 30.7958 33.3326C30.4545 33.4281 30.0985 33.24 29.9848 32.9045C29.9364 32.7485 29.869 32.5989 29.7845 32.4591C29.6039 32.1534 29.7029 31.7592 30.0065 31.5751C30.3101 31.3907 30.7055 31.4854 30.8931 31.7867C31.0328 32.0177 31.1437 32.2646 31.2236 32.5222Z" fill="#EC661D"/>
<path id="Vector_19" d="M31.0718 34.8865C30.9597 35.1308 30.8188 35.3606 30.6518 35.5711C30.4269 35.8478 30.0222 35.8941 29.7409 35.6755C29.4607 35.4527 29.4141 35.0449 29.637 34.7647C29.7403 34.6362 29.8274 34.4955 29.8963 34.3459C30.0457 34.0202 30.4306 33.8775 30.756 34.0266C31.0816 34.176 31.2243 34.5609 31.075 34.8865L31.0718 34.8865Z" fill="#EC661D"/>
<path id="Vector_20" d="M21.8673 30.0503C21.5585 30.2309 21.1617 30.1304 20.9759 29.8245C20.8387 29.5938 20.7298 29.3472 20.6517 29.0905C20.5527 28.7504 20.7455 28.3935 21.0844 28.2899C21.423 28.186 21.7825 28.3735 21.8914 28.7107C21.9394 28.8682 22.0066 29.0193 22.0911 29.1605C22.1794 29.3081 22.2054 29.485 22.1635 29.6517C22.1215 29.8184 22.0149 29.962 21.8673 30.0503Z" fill="#EC661D"/>
<path id="Vector_21" d="M32.415 25.3651C32.415 25.5371 32.3466 25.7021 32.2251 25.8236C32.1035 25.9452 31.9385 26.0135 31.7666 26.0135H31.1183C30.7602 26.0135 30.4699 25.7232 30.4699 25.3651C30.4699 25.0071 30.7602 24.7168 31.1183 24.7168H31.7666C31.9385 24.7168 32.1035 24.7851 32.2251 24.9067C32.3466 25.0282 32.415 25.1932 32.415 25.3651Z" fill="#EC661D"/>
<path id="Vector_22" d="M34.7958 24.5071C34.8942 24.648 34.9327 24.8223 34.9029 24.9916C34.8728 25.1612 34.7767 25.3117 34.6354 25.4101C34.4154 25.5644 34.1778 25.6915 33.9274 25.7887C33.594 25.914 33.2215 25.7502 33.0887 25.4197C32.959 25.0859 33.1246 24.7105 33.458 24.5809C33.6117 24.5207 33.7579 24.4425 33.8933 24.3482C34.1862 24.143 34.5902 24.2142 34.7958 24.5071Z" fill="#EC661D"/>
<path id="Vector_23" d="M33.0538 19.9691C33.0538 20.1411 32.9855 20.3061 32.8639 20.4276C32.7424 20.5492 32.5774 20.6175 32.4055 20.6175H31.7571C31.3991 20.6175 31.1088 20.3272 31.1088 19.9691C31.1088 19.6111 31.3991 19.3208 31.7571 19.3208H32.4055C32.5774 19.3208 32.7424 19.3891 32.8639 19.5107C32.9855 19.6322 33.0538 19.7972 33.0538 19.9691Z" fill="#EC661D"/>
<path id="Vector_24" d="M36.0642 22.6614C36.0645 22.93 36.033 23.1974 35.9696 23.4582C35.899 23.7488 35.6391 23.9534 35.3401 23.9537C35.143 23.9491 34.958 23.8568 34.8359 23.7016C34.714 23.5465 34.6674 23.345 34.7094 23.1523C34.7479 22.9934 34.7673 22.8304 34.767 22.6666C34.7655 22.3085 35.0547 22.0171 35.4127 22.0156C35.7707 22.0142 36.0622 22.3033 36.0637 22.6614H36.0642Z" fill="#EC661D"/>
<path id="Vector_25" d="M29.1451 36.0319C29.2067 36.3848 28.9705 36.7205 28.618 36.7822C28.3674 36.8233 28.1132 36.8395 27.8594 36.8308C27.5014 36.8308 27.2111 36.5405 27.2111 36.1824C27.2111 35.8244 27.5014 35.5341 27.8594 35.5341C28.0386 35.5387 28.2174 35.5286 28.3949 35.5043C28.5645 35.4748 28.7387 35.5135 28.8794 35.6125C29.0201 35.7115 29.1156 35.8623 29.1451 36.0319Z" fill="#EC661D"/>
<path id="Vector_26" d="M29.4579 31.1387C29.3739 31.4105 29.123 31.5957 28.8385 31.596C28.6127 31.596 28.393 31.493 28.1655 31.4805C27.8075 31.4611 27.5331 31.1552 27.5522 30.7972C27.5716 30.4391 27.8775 30.1644 28.2356 30.1838C28.505 30.1986 28.7713 30.2461 29.0292 30.3251C29.1942 30.3757 29.3323 30.4901 29.4127 30.6429C29.4932 30.7957 29.5094 30.974 29.4579 31.1387Z" fill="#EC661D"/>
<path id="Vector_27" d="M24.6201 25.3651C24.6201 25.537 24.5518 25.702 24.4302 25.8236C24.3087 25.9451 24.1437 26.0134 23.9718 26.0134C23.7538 26.0134 23.5405 26.0705 23.3234 26.0705C22.9914 26.0693 22.7141 25.8175 22.6809 25.4875C22.6476 25.1573 22.8687 24.8551 23.1938 24.7874C23.4499 24.7376 23.7107 24.7141 23.9718 24.7176C24.3295 24.7176 24.6198 25.0074 24.6201 25.3651Z" fill="#EC661D"/>
<path id="Vector_28" d="M26.5592 36.1803C26.5592 36.3523 26.4909 36.5172 26.3693 36.6388C26.2475 36.7604 26.0828 36.8287 25.9108 36.8287H25.2625C24.9044 36.8287 24.6141 36.5384 24.6141 36.1803C24.6141 35.8223 24.9044 35.532 25.2625 35.532H25.9108C26.0828 35.532 26.2475 35.6003 26.3693 35.7219C26.4909 35.8434 26.5592 36.0084 26.5592 36.1803Z" fill="#EC661D"/>
<path id="Vector_29" d="M24.2999 30.8743C24.2721 31.2112 23.9896 31.4699 23.6515 31.4688C23.365 31.4586 23.0816 31.4037 22.8122 31.3058C22.4718 31.1929 22.2877 30.8256 22.4006 30.4856C22.5138 30.1452 22.8811 29.9611 23.2211 30.074C23.378 30.1261 23.5404 30.1594 23.7048 30.1733C23.877 30.1869 24.0365 30.2685 24.1482 30.3999C24.2599 30.5316 24.3146 30.7021 24.2999 30.8743Z" fill="#EC661D"/>
<path id="Vector_30" d="M23.9583 36.1803C23.9583 36.3523 23.89 36.5172 23.7685 36.6388C23.6469 36.7604 23.4819 36.8287 23.31 36.8287H22.6617C22.3036 36.8287 22.0133 36.5384 22.0133 36.1803C22.0133 35.8223 22.3036 35.532 22.6617 35.532H23.31C23.4819 35.532 23.6469 35.6003 23.7685 35.7219C23.89 35.8434 23.9583 36.0084 23.9583 36.1803Z" fill="#EC661D"/>
<path id="Vector_31" d="M26.9 30.8297C26.9 31.0017 26.8317 31.1667 26.7101 31.2882C26.5886 31.4098 26.4236 31.4781 26.2517 31.4781H25.6033C25.2453 31.4781 24.955 31.1878 24.955 30.8297C24.955 30.4717 25.2453 30.1814 25.6033 30.1814H26.2517C26.4236 30.1814 26.5886 30.2497 26.7101 30.3713C26.8317 30.4928 26.9 30.6578 26.9 30.8297Z" fill="#EC661D"/>
<path id="Vector_32" d="M27.2187 25.3651C27.2187 25.5371 27.1504 25.7021 27.0288 25.8236C26.9072 25.9452 26.7422 26.0135 26.5703 26.0135H25.922C25.5639 26.0135 25.2736 25.7232 25.2736 25.3651C25.2736 25.0071 25.5639 24.7168 25.922 24.7168H26.5703C26.7422 24.7168 26.9072 24.7851 27.0288 24.9067C27.1504 25.0282 27.2187 25.1932 27.2187 25.3651Z" fill="#EC661D"/>
</g>
</g>
</svg>
